<?xml version="1.0" encoding="UTF-8"?>
<svg version="1.1" xmlns="http://www.w3.org/2000/svg" width="100" height="107">
<path d="M0 0 C0 0.99 0 1.98 0 3 C0.33 2.34 0.66 1.68 1 1 C6.21407302 1.66619332 7.8662763 3.54912198 11.09375 7.484375 C19.56801976 18.66763264 23.83221436 26.79429446 23 41 C22.72929687 42.34964844 22.72929687 42.34964844 22.453125 43.7265625 C21.83073774 46.00426144 21.83073774 46.00426144 22.5625 48.25 C23.21827753 52.3720302 22.05228678 56.00826749 21 60 C22.65 60 24.3 60 26 60 C25.98428955 60.82201904 25.9685791 61.64403809 25.95239258 62.4909668 C25.88994927 66.22307428 25.85097864 69.95507172 25.8125 73.6875 C25.78736328 74.98107422 25.76222656 76.27464844 25.73632812 77.60742188 C25.72666016 78.85458984 25.71699219 80.10175781 25.70703125 81.38671875 C25.6913208 82.53358154 25.67561035 83.68044434 25.65942383 84.86206055 C26.03809429 88.35098636 27.146441 90.07688035 29 93 C29 94.32 29 95.64 29 97 C27 99 27 99 24.15344238 99.24723816 C22.33048645 99.24510063 22.33048645 99.24510063 20.47070312 99.24291992 C19.80062729 99.24481827 19.13055145 99.24671661 18.44017029 99.24867249 C16.22041199 99.25238374 14.00097933 99.24167123 11.78125 99.23046875 C10.24190306 99.22927701 8.70255539 99.22882378 7.16320801 99.2290802 C3.93509375 99.22751472 0.70709029 99.21922033 -2.52099609 99.20581055 C-6.66399877 99.1888206 -10.80687959 99.18499618 -14.94991302 99.18575573 C-18.12914193 99.18548411 -21.30834407 99.18000426 -24.48756409 99.17275429 C-26.01542457 99.16956657 -27.5432881 99.16759997 -29.07115173 99.16686058 C-31.20438835 99.16469811 -33.33749444 99.15595592 -35.47070312 99.14526367 C-36.68600708 99.14145187 -37.90131104 99.13764008 -39.15344238 99.13371277 C-42 99 -42 99 -44 98 C-43.62212834 94.75030375 -43.29682158 92.44920108 -41.4753418 89.69262695 C-39.68117582 86.41811818 -39.65421295 84.32035593 -39.70703125 80.60546875 C-39.71669922 79.40341797 -39.72636719 78.20136719 -39.73632812 76.96289062 C-39.76146484 75.71701172 -39.78660156 74.47113281 -39.8125 73.1875 C-39.82603516 71.92228516 -39.83957031 70.65707031 -39.85351562 69.35351562 C-39.88881682 66.23524357 -39.93813181 63.11783958 -40 60 C-37.525 59.505 -37.525 59.505 -35 59 C-35.495 57.515 -35.495 57.515 -36 56 C-36.01957084 54.06248684 -35.99353325 52.12430163 -35.9375 50.1875 C-35.88791904 45.58197971 -36.51772397 42.35418583 -38 38 C-38.58343993 31.65867746 -38.60698795 26.48262168 -35 21 C-34.67 20.67 -34.34 20.34 -34 20 C-34.66 19.67 -35.32 19.34 -36 19 C-35.34 17.68 -34.68 16.36 -34 15 C-33.01 15 -32.02 15 -31 15 C-30.690625 13.329375 -30.690625 13.329375 -30.375 11.625 C-29.92125 10.42875 -29.4675 9.2325 -29 8 C-26.1875 6.75 -26.1875 6.75 -23 6 C-22.26652344 5.52433594 -21.53304687 5.04867188 -20.77734375 4.55859375 C-17.41839139 2.67361205 -14.11955992 1.98169381 -10.375 1.3125 C-9.70726562 1.18294922 -9.03953125 1.05339844 -8.3515625 0.91992188 C-5.5194456 0.38465178 -2.8885724 0 0 0 Z " fill="#C3A8A9" transform="translate(58,8)"/>
<path d="M0 0 C21.78 0 43.56 0 66 0 C66 9.24 66 18.48 66 28 C66.99 29.65 67.98 31.3 69 33 C69 34.32 69 35.64 69 37 C67 39 67 39 64.15344238 39.24723816 C62.33048645 39.24510063 62.33048645 39.24510063 60.47070312 39.24291992 C59.80062729 39.24481827 59.13055145 39.24671661 58.44017029 39.24867249 C56.22041199 39.25238374 54.00097933 39.24167123 51.78125 39.23046875 C50.24190306 39.22927701 48.70255539 39.22882378 47.16320801 39.2290802 C43.93509375 39.22751472 40.70709029 39.21922033 37.47900391 39.20581055 C33.33600123 39.1888206 29.19312041 39.18499618 25.05008698 39.18575573 C21.87085807 39.18548411 18.69165593 39.18000426 15.51243591 39.17275429 C13.98457543 39.16956657 12.4567119 39.16759997 10.92884827 39.16686058 C8.79561165 39.16469811 6.66250556 39.15595592 4.52929688 39.14526367 C3.31399292 39.14145187 2.09868896 39.13764008 0.84655762 39.13371277 C-2 39 -2 39 -4 38 C-3.44665863 33.24126419 -2.60573797 31.34289662 0 27 C0 18.09 0 9.18 0 0 Z " fill="#B0B0B8" transform="translate(18,68)"/>
<path d="M0 0 C0 0.99 0 1.98 0 3 C0.33 2.34 0.66 1.68 1 1 C6.21407302 1.66619332 7.8662763 3.54912198 11.09375 7.484375 C20.46595482 19.85261251 24.58577052 29.10672107 22.5 44.75 C22.335 45.4925 22.17 46.235 22 47 C21.34 47 20.68 47 20 47 C19.67 49.64 19.34 52.28 19 55 C17.42445965 52.11371599 16.53723627 49.46657616 15.875 46.25 C15.62363281 45.05117187 15.62363281 45.05117187 15.3671875 43.828125 C15.18542969 42.92320313 15.18542969 42.92320313 15 42 C14.34 42 13.68 42 13 42 C12.91363281 41.26394531 12.82726562 40.52789062 12.73828125 39.76953125 C11.81365759 33.34806234 10.89386531 30.43862202 6 26 C4.62370597 23.47955793 3.42196096 20.90435661 2.203125 18.3046875 C0.84551786 15.70407643 -0.85933845 13.98209403 -3 12 C-3 11.01 -3 10.02 -3 9 C0.40312738 10.05875074 3.01353231 11.00902154 6 13 C6.99 13 7.98 13 9 13 C7.75443908 12.18071114 6.50333365 11.36984814 5.25 10.5625 C4.55390625 10.11003906 3.8578125 9.65757813 3.140625 9.19140625 C-2.39662453 6.10954292 -8.83548848 6.40877447 -15 7 C-18.9047095 8.29136944 -22.06568302 10.06568302 -25 13 C-25.24212873 14.98128508 -25.24212873 14.98128508 -25.125 17.125 C-25.08375 18.40375 -25.0425 19.6825 -25 21 C-24.33613281 21.08636719 -23.67226563 21.17273438 -22.98828125 21.26171875 C-17.04394008 22.20760662 -13.97025109 23.21234427 -10 28 C-8.68824014 29.02813611 -7.3630107 30.04084432 -6 31 C-7.90474484 25.50985312 -10.30758962 22.32259841 -14.57421875 18.3828125 C-15.04472656 17.92648438 -15.51523437 17.47015625 -16 17 C-16 16.67 -16 16.34 -16 16 C-11.11058486 15.38882311 -8.73584348 15.82311739 -4.75 18.8125 C-3.47518739 19.84509821 -2.2233709 20.9069447 -1 22 C-0.47019531 22.46792969 0.05960938 22.93585937 0.60546875 23.41796875 C2.28239665 25.32036595 3.09878856 27.15900054 4.0625 29.5 C5.21853373 32.28562344 6.30923391 34.46385086 8 37 C8 37.99 8 38.98 8 40 C8.598125 40.268125 9.19625 40.53625 9.8125 40.8125 C11.97224808 41.98493467 13.35790256 43.19369282 15 45 C12.04335481 46.4783226 9.25770263 46.06032783 6 46 C7.65 46.99 9.3 47.98 11 49 C10.01 49.33 9.02 49.66 8 50 C8 50.66 8 51.32 8 52 C4.625 52.625 4.625 52.625 1 53 C0.34 52.34 -0.32 51.68 -1 51 C-1.66 52.32 -2.32 53.64 -3 55 C-3.495 51.535 -3.495 51.535 -4 48 C-5.98 48 -7.96 48 -10 48 C-10 49.65 -10 51.3 -10 53 C-10.33 53 -10.66 53 -11 53 C-11 51.02 -11 49.04 -11 47 C-9.865625 46.896875 -8.73125 46.79375 -7.5625 46.6875 C-2.80602649 46.10889499 1.51898346 44.64926303 6 43 C3.69 43 1.38 43 -1 43 C-0.67 41.68 -0.34 40.36 0 39 C1.32 39 2.64 39 4 39 C1.92642516 33.93126149 -0.27236232 31.73152399 -5 29 C-4.505 31.97 -4.505 31.97 -4 35 C-6.53998713 33.87111683 -8.06867458 32.92703326 -10 30.875 C-14.59176393 28.00514754 -19.72333701 27.9777405 -25 29 C-27.74422838 31.90756046 -28.47070885 34.28390106 -28.94921875 38.203125 C-29.07490234 39.1828125 -29.20058594 40.1625 -29.33007812 41.171875 C-29.44802734 42.18765625 -29.56597656 43.2034375 -29.6875 44.25 C-29.81705078 45.28125 -29.94660156 46.3125 -30.08007812 47.375 C-30.39764413 49.91552801 -30.70385529 52.45690095 -31 55 C-31.66 55 -32.32 55 -33 55 C-40.29300873 32.78236984 -40.29300873 32.78236984 -36.5625 23.375 C-35 21 -35 21 -34 20 C-34.66 19.67 -35.32 19.34 -36 19 C-35.34 17.68 -34.68 16.36 -34 15 C-33.01 15 -32.02 15 -31 15 C-30.79375 13.88625 -30.5875 12.7725 -30.375 11.625 C-29.92125 10.42875 -29.4675 9.2325 -29 8 C-26.1875 6.75 -26.1875 6.75 -23 6 C-21.89978516 5.28650391 -21.89978516 5.28650391 -20.77734375 4.55859375 C-17.41839139 2.67361205 -14.11955992 1.98169381 -10.375 1.3125 C-9.37339844 1.11817383 -9.37339844 1.11817383 -8.3515625 0.91992188 C-5.5194456 0.38465178 -2.8885724 0 0 0 Z " fill="#553E89" transform="translate(58,8)"/>
<path d="M0 0 C5.14454762 1.05331562 8.46679585 4.01550561 12.12890625 7.640625 C11.79890625 5.660625 11.46890625 3.680625 11.12890625 1.640625 C15.53191495 2.98598877 17.60047025 4.80114812 20.12890625 8.640625 C20.12890625 9.630625 20.12890625 10.620625 20.12890625 11.640625 C19.48953125 11.74375 18.85015625 11.846875 18.19140625 11.953125 C17.51078125 12.18 16.83015625 12.406875 16.12890625 12.640625 C15.79890625 13.630625 15.46890625 14.620625 15.12890625 15.640625 C18.59390625 15.145625 18.59390625 15.145625 22.12890625 14.640625 C22.62390625 15.630625 22.62390625 15.630625 23.12890625 16.640625 C22.17177734 16.83978516 22.17177734 16.83978516 21.1953125 17.04296875 C20.36902344 17.21957031 19.54273438 17.39617188 18.69140625 17.578125 C17.45583984 17.83916016 17.45583984 17.83916016 16.1953125 18.10546875 C14.15229421 18.44815494 14.15229421 18.44815494 13.12890625 19.640625 C10.45831774 19.78177661 7.80458387 19.68309607 5.12890625 19.640625 C5.31453125 20.754375 5.50015625 21.868125 5.69140625 23.015625 C6.12890625 26.640625 6.12890625 26.640625 5.12890625 28.640625 C4.46890625 28.310625 3.80890625 27.980625 3.12890625 27.640625 C3.12890625 26.320625 3.12890625 25.000625 3.12890625 23.640625 C2.46890625 24.300625 1.80890625 24.960625 1.12890625 25.640625 C-2.49609375 25.765625 -2.49609375 25.765625 -5.87109375 25.640625 C-5.87109375 24.650625 -5.87109375 23.660625 -5.87109375 22.640625 C-6.86109375 23.300625 -7.85109375 23.960625 -8.87109375 24.640625 C-8.87109375 25.630625 -8.87109375 26.620625 -8.87109375 27.640625 C-5.24109375 27.970625 -1.61109375 28.300625 2.12890625 28.640625 C2.12890625 28.970625 2.12890625 29.300625 2.12890625 29.640625 C-2.49109375 29.640625 -7.11109375 29.640625 -11.87109375 29.640625 C-11.87109375 30.300625 -11.87109375 30.960625 -11.87109375 31.640625 C-13.19109375 31.640625 -14.51109375 31.640625 -15.87109375 31.640625 C-16.20109375 30.320625 -16.53109375 29.000625 -16.87109375 27.640625 C-16.21109375 27.640625 -15.55109375 27.640625 -14.87109375 27.640625 C-14.81050781 26.89039062 -14.74992187 26.14015625 -14.6875 25.3671875 C-14.5125386 23.2299667 -14.33116789 21.09326415 -14.14453125 18.95703125 C-13.97530032 16.90450183 -13.8298643 14.84967061 -13.72265625 12.79296875 C-13.48193932 8.9930801 -13.04106913 6.04532828 -11.55859375 2.515625 C-7.73805198 -0.14986926 -4.5905166 -0.157711 0 0 Z " fill="#806B5D" transform="translate(41.87109375,35.359375)"/>
<path d="M0 0 C3.1791105 1.78030188 6.15179136 3.64699876 9.125 5.75 C6.47001768 6.7669313 5.43344625 6.88022151 2.765625 5.75390625 C1.97671875 5.27824219 1.1878125 4.80257813 0.375 4.3125 C-0.42421875 3.83941406 -1.2234375 3.36632812 -2.046875 2.87890625 C-2.65015625 2.50636719 -3.2534375 2.13382813 -3.875 1.75 C-2.37695934 4.37157116 -0.87994001 6.74410386 1.0625 9.0625 C5.5913988 14.96379237 8.29754756 21.01676587 8.1875 28.5 C8.17847656 29.29921875 8.16945312 30.0984375 8.16015625 30.921875 C8.14855469 31.52515625 8.13695312 32.1284375 8.125 32.75 C6.05003236 30.26003884 4.54721648 27.70616353 3.125 24.8125 C-0.26339877 17.92062477 -3.41150693 14.05899538 -9.875 9.75 C-13.00021833 9.58300768 -13.00021833 9.58300768 -15.875 9.75 C-15.30910156 10.25789063 -14.74320313 10.76578125 -14.16015625 11.2890625 C-8.09455403 16.98156089 -8.09455403 16.98156089 -6.875 21.25 C-6.875 22.075 -6.875 22.9 -6.875 23.75 C-8.8125 22.9375 -8.8125 22.9375 -10.875 21.75 C-11.205 20.76 -11.535 19.77 -11.875 18.75 C-13.80311046 17.7952123 -13.80311046 17.7952123 -16.125 17.1875 C-17.33736328 16.82011719 -17.33736328 16.82011719 -18.57421875 16.4453125 C-19.33347656 16.21585938 -20.09273437 15.98640625 -20.875 15.75 C-22.54863977 15.10103764 -24.21961042 14.44419563 -25.875 13.75 C-26.205 11.11 -26.535 8.47 -26.875 5.75 C-25.60799277 4.7658875 -24.3362381 3.78788503 -23.0625 2.8125 C-22.35480469 2.26722656 -21.64710937 1.72195312 -20.91796875 1.16015625 C-15.33781897 -2.69153413 -6.17293274 -2.54668077 0 0 Z " fill="#8569BB" transform="translate(58.875,15.25)"/>
<path d="M0 0 C4.88941514 -0.61117689 7.26415652 -0.17688261 11.25 2.8125 C12.52481261 3.84509821 13.7766291 4.9069447 15 6 C15.52980469 6.46792969 16.05960938 6.93585937 16.60546875 7.41796875 C18.28239665 9.32036595 19.09878856 11.15900054 20.0625 13.5 C21.21853373 16.28562344 22.30923391 18.46385086 24 21 C24 21.99 24 22.98 24 24 C24.598125 24.268125 25.19625 24.53625 25.8125 24.8125 C27.97224808 25.98493467 29.35790256 27.19369282 31 29 C28.04335481 30.4783226 25.25770263 30.06032783 22 30 C23.65 30.99 25.3 31.98 27 33 C26.01 33.33 25.02 33.66 24 34 C24 34.66 24 35.32 24 36 C20.625 36.625 20.625 36.625 17 37 C16.34 36.34 15.68 35.68 15 35 C14.34 36.32 13.68 37.64 13 39 C12.67 36.69 12.34 34.38 12 32 C10.02 32 8.04 32 6 32 C6 33.65 6 35.3 6 37 C5.67 37 5.34 37 5 37 C5 35.02 5 33.04 5 31 C6.134375 30.896875 7.26875 30.79375 8.4375 30.6875 C13.19397351 30.10889499 17.51898346 28.64926303 22 27 C19.69 27 17.38 27 15 27 C15.33 25.68 15.66 24.36 16 23 C17.32 23 18.64 23 20 23 C17.92642516 17.93126149 15.72763768 15.73152399 11 13 C11.33 14.98 11.66 16.96 12 19 C9.49801491 17.88800663 7.8960062 16.8960062 5.9375 14.9375 C1.57104354 12.0574968 -2.86813943 12.17974993 -8 12 C-7.67 11.34 -7.34 10.68 -7 10 C3.68430493 9.23318386 3.68430493 9.23318386 6.91015625 11.11328125 C8.25 12.5 8.25 12.5 10 15 C8.09525516 9.50985312 5.69241038 6.32259841 1.42578125 2.3828125 C0.95527344 1.92648438 0.48476563 1.47015625 0 1 C0 0.67 0 0.34 0 0 Z " fill="#715F52" transform="translate(42,24)"/>
<path d="M0 0 C0.268125 1.11375 0.53625 2.2275 0.8125 3.375 C1.52482845 5.38342078 1.52482845 5.38342078 3 7 C5.85358348 7.92957644 8.52140346 8.30829756 11.50390625 8.61328125 C14 9 14 9 16 11 C15.00419922 10.89558594 15.00419922 10.89558594 13.98828125 10.7890625 C12.66376953 10.70785156 12.66376953 10.70785156 11.3125 10.625 C10.44238281 10.55539063 9.57226562 10.48578125 8.67578125 10.4140625 C5.49407958 11.11078549 3.98965882 12.36860631 2.04223633 14.96337891 C-0.09750571 19.14462231 -0.34508761 23.76041909 -0.8125 28.375 C-0.93302734 29.39722656 -1.05355469 30.41945313 -1.17773438 31.47265625 C-1.47067847 33.98025767 -1.74412314 36.48839179 -2 39 C-2.66 39 -3.32 39 -4 39 C-11.3293861 16.67154877 -11.3293861 16.67154877 -7.5625 7.5 C-7.046875 6.675 -6.53125 5.85 -6 5 C-5.67 4.01 -5.34 3.02 -5 2 C-2 0 -2 0 0 0 Z " fill="#432C78" transform="translate(29,24)"/>
<path d="M0 0 C4.99132081 -0.58776301 9.25998183 -0.99181036 13.734375 1.55859375 C15.92248371 3.29026577 17.99547883 5.05982148 20 7 C19.67 5.02 19.34 3.04 19 1 C23.4030087 2.34536377 25.471564 4.16052312 28 8 C28 8.99 28 9.98 28 11 C26.8553125 11.4021875 26.8553125 11.4021875 25.6875 11.8125 C22.97473587 12.75746437 22.97473587 12.75746437 21.6875 14.6875 C19.12938599 16.67714423 16.94189951 15.99844575 13.83984375 15.6171875 C12 15 12 15 10 12 C7.83747945 11.45680765 7.83747945 11.45680765 5.4375 11.375 C1.08233276 11.08233276 1.08233276 11.08233276 0 10 C-0.07205511 8.31391034 -0.08386068 6.62499341 -0.0625 4.9375 C-0.05347656 4.01839844 -0.04445312 3.09929688 -0.03515625 2.15234375 C-0.02355469 1.44207031 -0.01195312 0.73179688 0 0 Z " fill="#D9AE92" transform="translate(34,36)"/>
<path d="M0 0 C1.953125 0.6484375 1.953125 0.6484375 4 2 C4.609375 4.6015625 4.609375 4.6015625 4.75 7.625 C4.80671875 8.62789062 4.8634375 9.63078125 4.921875 10.6640625 C4.96054688 11.82035156 4.96054688 11.82035156 5 13 C5.99 12.67 6.98 12.34 8 12 C8.55706146 14.43489767 9.0960037 16.87149591 9.625 19.3125 C9.78484375 20.00279297 9.9446875 20.69308594 10.109375 21.40429688 C10.50206712 23.25173481 10.75842888 25.12680022 11 27 C10.34 27.99 9.68 28.98 9 30 C8.01 30 7.02 30 6 30 C6 29.34 6 28.68 6 28 C0.72 28 -4.56 28 -10 28 C-10 26.02 -10 24.04 -10 22 C-9.01 22 -8.02 22 -7 22 C-7 22.66 -7 23.32 -7 24 C-3.535 23.505 -3.535 23.505 0 23 C0 22.34 0 21.68 0 21 C0.66 20.67 1.32 20.34 2 20 C-0.64 19.01 -3.28 18.02 -6 17 C-6 16.67 -6 16.34 -6 16 C-2.04 16 1.92 16 6 16 C3.03 15.505 3.03 15.505 0 15 C0.99 14.34 1.98 13.68 3 13 C2.34 12.34 1.68 11.68 1 11 C0.5859375 8.3984375 0.5859375 8.3984375 0.375 5.375 C0.30023438 4.37210938 0.22546875 3.36921875 0.1484375 2.3359375 C0.09945312 1.56507812 0.05046875 0.79421875 0 0 Z " fill="#6F5B50" transform="translate(66,37)"/>
<path d="M0 0 C0.33 3.3 0.66 6.6 1 10 C3.27864583 10.1953125 5.55729167 10.390625 7.8359375 10.5859375 C10 11 10 11 12 13 C11.67 14.32 11.34 15.64 11 17 C6.05 16.67 1.1 16.34 -4 16 C-3.67 19.63 -3.34 23.26 -3 27 C1.29 27.33 5.58 27.66 10 28 C10 28.33 10 28.66 10 29 C5.38 29 0.76 29 -4 29 C-4 29.66 -4 30.32 -4 31 C-5.32 31 -6.64 31 -8 31 C-8.33 29.68 -8.66 28.36 -9 27 C-8.34 27 -7.68 27 -7 27 C-6.93941406 26.24976562 -6.87882812 25.49953125 -6.81640625 24.7265625 C-6.64144485 22.5893417 -6.46007414 20.45263915 -6.2734375 18.31640625 C-6.10420657 16.26387683 -5.95877055 14.20904561 -5.8515625 12.15234375 C-5.08173077 0 -5.08173077 0 0 0 Z " fill="#B18566" transform="translate(34,36)"/>
<path d="M0 0 C3.07853154 0.93071884 5.71985579 1.82042038 8.4375 3.5625 C11.60435879 5.33903054 14.41438358 5.64846898 18 6 C17.83628906 6.96035156 17.67257813 7.92070312 17.50390625 8.91015625 C16.85905182 13.42413725 16.88982338 17.88621642 16.9375 22.4375 C16.94201172 23.26443359 16.94652344 24.09136719 16.95117188 24.94335938 C16.96284189 26.96227146 16.98077282 28.98114574 17 31 C15.77180177 28.64510753 14.87422072 26.56875677 14.125 24 C13.23672056 20.97774034 13.23672056 20.97774034 11.1875 19.25 C8.3252167 16.30593718 6.98621262 13.02511081 5.23828125 9.33984375 C3.85848519 6.73259505 2.15305523 4.99356966 0 3 C0 2.01 0 1.02 0 0 Z " fill="#472E7C" transform="translate(55,17)"/>
<path d="M0 0 C0 0.66 0 1.32 0 2 C-3.63 2.66 -7.26 3.32 -11 4 C-11 4.66 -11 5.32 -11 6 C-11.59167969 6.17015625 -12.18335937 6.3403125 -12.79296875 6.515625 C-19.62267225 8.54030112 -19.62267225 8.54030112 -25 13 C-25.40847495 15.80020329 -25.23783092 18.14602895 -25 21 C-24.30132812 21.10957031 -23.60265625 21.21914063 -22.8828125 21.33203125 C-21.51769531 21.56986328 -21.51769531 21.56986328 -20.125 21.8125 C-19.22007813 21.96332031 -18.31515625 22.11414063 -17.3828125 22.26953125 C-15 23 -15 23 -13 26 C-15.10662151 25.77160737 -17.21035951 25.51650087 -19.3125 25.25 C-20.48425781 25.11078125 -21.65601563 24.9715625 -22.86328125 24.828125 C-26 24 -26 24 -27.91796875 22.171875 C-29 20 -29 20 -29 16 C-29.33 16.66 -29.66 17.32 -30 18 C-33.0625 18.625 -33.0625 18.625 -36 19 C-35.34 17.68 -34.68 16.36 -34 15 C-33.01 15 -32.02 15 -31 15 C-30.79375 13.88625 -30.5875 12.7725 -30.375 11.625 C-29.92125 10.42875 -29.4675 9.2325 -29 8 C-26.1875 6.75 -26.1875 6.75 -23 6 C-21.89978516 5.28650391 -21.89978516 5.28650391 -20.77734375 4.55859375 C-17.41839139 2.67361205 -14.11955992 1.98169381 -10.375 1.3125 C-9.37339844 1.11817383 -9.37339844 1.11817383 -8.3515625 0.91992188 C-5.5194456 0.38465178 -2.8885724 0 0 0 Z " fill="#59428F" transform="translate(58,8)"/>
<path d="M0 0 C3 2 3 2 3.6796875 3.7578125 C4.62473918 10.37317426 4.44877569 17.4805094 3 24 C2.34 24 1.68 24 1 24 C0.67 26.64 0.34 29.28 0 32 C-5.77383738 21.99201521 -2.4728953 10.4803658 0 0 Z " fill="#463080" transform="translate(77,31)"/>
<path d="M0 0 C4.00446285 1.41333983 5.41803871 2.95698102 7.47265625 6.61328125 C8.90993508 11.66339212 6.89578638 16.33923891 5.1875 21.125 C4.89488281 21.96546875 4.60226563 22.8059375 4.30078125 23.671875 C3.63483758 25.50403223 2.91748987 27.31740605 2.1875 29.125 C1.5275 29.125 0.8675 29.125 0.1875 29.125 C0.12938227 25.37506521 0.09386407 21.62524648 0.0625 17.875 C0.04574219 16.81152344 0.02898437 15.74804688 0.01171875 14.65234375 C0.00527344 13.62753906 -0.00117187 12.60273437 -0.0078125 11.546875 C-0.01828613 10.60424805 -0.02875977 9.66162109 -0.03955078 8.69042969 C0.19630787 6.02548059 0.83088341 4.40636908 2.1875 2.125 C-0.1225 2.125 -2.4325 2.125 -4.8125 2.125 C-2.8125 0.125 -2.8125 0.125 0 0 Z " fill="#644A9E" transform="translate(70.8125,20.875)"/>
<path d="M0 0 C0.99 0 1.98 0 3 0 C3 0.66 3 1.32 3 2 C3.99 2.33 4.98 2.66 6 3 C6.33 4.98 6.66 6.96 7 9 C6.34 9 5.68 9 5 9 C4.67 12.63 4.34 16.26 4 20 C2 18 2 18 1 15 C0.67 16.32 0.34 17.64 0 19 C-0.33 19 -0.66 19 -1 19 C-3.56503533 7.08636483 -3.56503533 7.08636483 -2 2 C-1.34 1.34 -0.68 0.68 0 0 Z " fill="#473081" transform="translate(24,28)"/>
<path d="M0 0 C4.88941514 -0.61117689 7.26415652 -0.17688261 11.25 2.8125 C12.52481261 3.84509821 13.7766291 4.9069447 15 6 C15.54785156 6.474375 16.09570312 6.94875 16.66015625 7.4375 C19.03310604 10.20478838 19.25203191 13.4903036 20 17 C19.54109375 16.65066406 19.0821875 16.30132812 18.609375 15.94140625 C17.99578125 15.48636719 17.3821875 15.03132813 16.75 14.5625 C16.14671875 14.11003906 15.5434375 13.65757813 14.921875 13.19140625 C13.0784428 11.89671063 13.0784428 11.89671063 10.9921875 11.58203125 C8.24096144 10.77824168 7.19073297 9.30867885 5.375 7.125 C4.78460938 6.42632812 4.19421875 5.72765625 3.5859375 5.0078125 C2 3 2 3 0 0 Z " fill="#654B9E" transform="translate(42,24)"/>
<path d="M0 0 C0.86963087 2.99706695 1.11763099 5.64956526 1.09765625 8.765625 C1.09443359 9.65507813 1.09121094 10.54453125 1.08789062 11.4609375 C1.07951172 12.38132812 1.07113281 13.30171875 1.0625 14.25 C1.05798828 15.18585937 1.05347656 16.12171875 1.04882812 17.0859375 C1.03706938 19.39065247 1.01913468 21.69533446 1 24 C5.29 24.33 9.58 24.66 14 25 C14 25.33 14 25.66 14 26 C9.38 26 4.76 26 0 26 C0 26.66 0 27.32 0 28 C-1.32 28 -2.64 28 -4 28 C-4.33 26.68 -4.66 25.36 -5 24 C-4.34 24 -3.68 24 -3 24 C-2.93941406 23.24976562 -2.87882812 22.49953125 -2.81640625 21.7265625 C-2.39735784 16.60772502 -1.97105723 11.48933568 -1.5 6.375 C-1.4278125 5.57835937 -1.355625 4.78171875 -1.28125 3.9609375 C-1 2 -1 2 0 0 Z " fill="#795D4B" transform="translate(30,39)"/>
<path d="M0 0 C10.68430493 -0.76681614 10.68430493 -0.76681614 13.91015625 1.11328125 C15.25 2.5 15.25 2.5 17 5 C16.67 3.68 16.34 2.36 16 1 C19.16074555 1.07525585 21.31127067 1.42225796 23.76953125 3.484375 C26.87796996 6.89128206 26.87796996 6.89128206 28 9 C27.66015625 11.23046875 27.66015625 11.23046875 27 13 C26.62875 12.0925 26.2575 11.185 25.875 10.25 C23.73973745 6.54887824 21.65791748 5.11346343 18 3 C18.33 4.98 18.66 6.96 19 9 C16.49801491 7.88800663 14.8960062 6.8960062 12.9375 4.9375 C8.57104354 2.0574968 4.13186057 2.17974993 -1 2 C-0.67 1.34 -0.34 0.68 0 0 Z " fill="#714E65" transform="translate(35,34)"/>
<path d="M0 0 C0.268125 1.11375 0.53625 2.2275 0.8125 3.375 C1.52482845 5.38342078 1.52482845 5.38342078 3 7 C5.85358348 7.92957644 8.52140346 8.30829756 11.50390625 8.61328125 C14 9 14 9 16 11 C15.00419922 10.89558594 15.00419922 10.89558594 13.98828125 10.7890625 C7.95516115 10.39734525 7.95516115 10.39734525 2.9375 13.5625 C0.88908981 17.19677615 0.248294 19.8617666 0 24 C-0.33 24 -0.66 24 -1 24 C-1.125 16.375 -1.125 16.375 0 13 C0.66 13 1.32 13 2 13 C1.39816251 10.97954558 0.72693904 8.97888961 0 7 C-0.66 6.67 -1.32 6.34 -2 6 C-2 5.34 -2 4.68 -2 4 C-2.99 3.67 -3.98 3.34 -5 3 C-2.25 0 -2.25 0 0 0 Z " fill="#361B5B" transform="translate(29,24)"/>
<path d="M0 0 C1.77007714 -0.08114106 3.54122098 -0.13925505 5.3125 -0.1875 C6.29863281 -0.22230469 7.28476562 -0.25710937 8.30078125 -0.29296875 C11 0 11 0 12.85546875 1.51171875 C13.23316406 2.00285156 13.61085938 2.49398437 14 3 C11.69 3 9.38 3 7 3 C6.01 4.98 5.02 6.96 4 9 C4.99 9.66 5.98 10.32 7 11 C5.00045254 11.04254356 2.99958364 11.04080783 1 11 C0 10 0 10 -0.09765625 7.71484375 C-0.08605469 6.79832031 -0.07445312 5.88179687 -0.0625 4.9375 C-0.05347656 4.01839844 -0.04445312 3.09929688 -0.03515625 2.15234375 C-0.02355469 1.44207031 -0.01195312 0.73179688 0 0 Z " fill="#C89979" transform="translate(34,36)"/>
<path d="M0 0 C1.98 0 3.96 0 6 0 C6.0270043 1.45823212 6.04639787 2.91660675 6.0625 4.375 C6.07410156 5.18710937 6.08570313 5.99921875 6.09765625 6.8359375 C6 9 6 9 5 11 C3.68 11 2.36 11 1 11 C-0.20272819 8.59454362 -0.10071472 7.05003047 -0.0625 4.375 C-0.05347656 3.55773438 -0.04445312 2.74046875 -0.03515625 1.8984375 C-0.02355469 1.27195313 -0.01195312 0.64546875 0 0 Z " fill="#BC9274" transform="translate(48,56)"/>
<path d="M0 0 C5.47932789 1.54545146 10.11429181 4.15543212 15 7 C15 7.66 15 8.32 15 9 C7.42788462 9.90865385 7.42788462 9.90865385 4.06640625 7.76953125 C2.49069412 6.23916335 1.15872607 4.86759378 0 3 C0 2.01 0 1.02 0 0 Z " fill="#382072" transform="translate(55,17)"/>
<path d="M0 0 C2.28066717 1.57287391 2.28226064 2.61487108 2.8125 5.25 C-2.86105671 4.63273804 -8.52611055 3.97054048 -14.1875 3.25 C-14.1875 2.59 -14.1875 1.93 -14.1875 1.25 C-12.95 0.92 -11.7125 0.59 -10.4375 0.25 C-9.74140625 0.064375 -9.0453125 -0.12125 -8.328125 -0.3125 C-5.36782656 -0.9175245 -2.87137575 -0.98447169 0 0 Z " fill="#30176A" transform="translate(61.1875,10.75)"/>
<path d="M0 0 C0.33 0 0.66 0 1 0 C1.18451025 11.52164009 1.18451025 11.52164009 0 17 C-0.66 17 -1.32 17 -2 17 C-2.33 19.64 -2.66 22.28 -3 25 C-5.03219488 21.59648662 -5.36891039 18.6767073 -5.625 14.75 C-5.69976562 13.67234375 -5.77453125 12.5946875 -5.8515625 11.484375 C-5.90054688 10.66453125 -5.94953125 9.8446875 -6 9 C-5.01 9.99 -4.02 10.98 -3 12 C-2.01 8.04 -1.02 4.08 0 0 Z " fill="#362767" transform="translate(80,38)"/>
<path d="M0 0 C0.66 0.33 1.32 0.66 2 1 C2 1.66 2 2.32 2 3 C5.465 2.505 5.465 2.505 9 2 C9 1.34 9 0.68 9 0 C10.32 0.66 11.64 1.32 13 2 C13 2.66 13 3.32 13 4 C13.66 4.33 14.32 4.66 15 5 C12.26922124 6.36538938 10.04439633 6.13231826 7 6.125 C5.39125 6.12886719 5.39125 6.12886719 3.75 6.1328125 C1 6 1 6 -1 5 C-0.67 3.35 -0.34 1.7 0 0 Z " fill="#DFC1AE" transform="translate(57,58)"/>
<path d="M0 0 C0.66 0 1.32 0 2 0 C2 0.66 2 1.32 2 2 C2.99 2.33 3.98 2.66 5 3 C5 4.32 5 5.64 5 7 C2.03 7 -0.94 7 -4 7 C-4 6.34 -4 5.68 -4 5 C-4.99 5.99 -5.98 6.98 -7 8 C-7.99 7.67 -8.98 7.34 -10 7 C-9.67 5.35 -9.34 3.7 -9 2 C-6.36 2 -3.72 2 -1 2 C-0.67 1.34 -0.34 0.68 0 0 Z " fill="#D2D2D5" transform="translate(48,95)"/>
<path d="M0 0 C0.99 0 1.98 0 3 0 C3 0.66 3 1.32 3 2 C3.99 2.33 4.98 2.66 6 3 C6.33 4.98 6.66 6.96 7 9 C5.68 9.33 4.36 9.66 3 10 C2.67 8.68 2.34 7.36 2 6 C0.68 6 -0.64 6 -2 6 C-1.125 1.125 -1.125 1.125 0 0 Z " fill="#523B8A" transform="translate(24,28)"/>
<path d="M0 0 C0.66 0 1.32 0 2 0 C2 0.99 2 1.98 2 3 C7.01535052 2.67039784 7.01535052 2.67039784 11 0 C11.33 1.65 11.66 3.3 12 5 C9.35541621 6.32229189 7.32238699 6.09677194 4.375 6.0625 C3.37210938 6.05347656 2.36921875 6.04445313 1.3359375 6.03515625 C0.56507812 6.02355469 -0.20578125 6.01195313 -1 6 C-1.625 4.125 -1.625 4.125 -2 2 C-1.34 1.34 -0.68 0.68 0 0 Z " fill="#D0B7A7" transform="translate(34,58)"/>
<path d="M0 0 C1.79158489 -0.02696365 3.58328473 -0.04637917 5.375 -0.0625 C6.37273437 -0.07410156 7.37046875 -0.08570313 8.3984375 -0.09765625 C11 0 11 0 13 1 C13 3.97 13 6.94 13 10 C12.01 9.67 11.02 9.34 10 9 C9.773125 8.21625 9.54625 7.4325 9.3125 6.625 C7.75642891 3.51285781 7.03209524 3.34713604 3.875 2.1875 C2.58908793 1.77335394 1.29886417 1.37153556 0 1 C0 0.67 0 0.34 0 0 Z " fill="#A5846F" transform="translate(60,53)"/>
<path d="M0 0 C0.33 0.66 0.66 1.32 1 2 C0.34 2 -0.32 2 -1 2 C-1 3.32 -1 4.64 -1 6 C-3.31 6 -5.62 6 -8 6 C-8 5.01 -8 4.02 -8 3 C-8.99 3.33 -9.98 3.66 -11 4 C-10.67 3.01 -10.34 2.02 -10 1 C-6.78548731 -0.60725635 -3.56387464 -0.05748185 0 0 Z " fill="#514941" transform="translate(44,55)"/>
<path d="M0 0 C0.33 3.3 0.66 6.6 1 10 C-1.31 9.67 -3.62 9.34 -6 9 C-5.50909091 3.47727273 -5.50909091 3.47727273 -3 1.125 C-1 0 -1 0 0 0 Z " fill="#BDBACE" transform="translate(20,97)"/>
<path d="M0 0 C0.33 0.66 0.66 1.32 1 2 C4.465 1.505 4.465 1.505 8 1 C8.33 1.66 8.66 2.32 9 3 C8.04287109 3.19916016 8.04287109 3.19916016 7.06640625 3.40234375 C5.82697266 3.66724609 5.82697266 3.66724609 4.5625 3.9375 C3.32693359 4.19853516 3.32693359 4.19853516 2.06640625 4.46484375 C0.02338796 4.80752994 0.02338796 4.80752994 -1 6 C-3.67058851 6.14115161 -6.32432238 6.04247107 -9 6 C-9.33 4.68 -9.66 3.36 -10 2 C-6.7 2 -3.4 2 0 2 C0 1.34 0 0.68 0 0 Z " fill="#B1876A" transform="translate(56,49)"/>
<path d="M0 0 C2 1.8125 2 1.8125 4 4 C4 4.99 4 5.98 4 7 C5.32 7.66 6.64 8.32 8 9 C5.35541621 10.32229189 3.32238699 10.09677194 0.375 10.0625 C-0.62789062 10.05347656 -1.63078125 10.04445313 -2.6640625 10.03515625 C-3.43492188 10.02355469 -4.20578125 10.01195312 -5 10 C-4.67 8.68 -4.34 7.36 -4 6 C-2.35 6 -0.7 6 1 6 C0.67 4.02 0.34 2.04 0 0 Z " fill="#4B3237" transform="translate(62,41)"/>
<path d="M0 0 C1.953125 0.8671875 1.953125 0.8671875 4 2 C5.46610641 6.15396816 5.07380228 10.64566525 5 15 C3.35 15 1.7 15 0 15 C0.99 14.34 1.98 13.68 3 13 C2.34 12.34 1.68 11.68 1 11 C0.5859375 8.3984375 0.5859375 8.3984375 0.375 5.375 C0.30023438 4.37210938 0.22546875 3.36921875 0.1484375 2.3359375 C0.09945312 1.56507812 0.05046875 0.79421875 0 0 Z " fill="#B08269" transform="translate(66,37)"/>
<path d="M0 0 C2 3 2 3 2 5 C7.28 5 12.56 5 18 5 C18 5.66 18 6.32 18 7 C11.73 7 5.46 7 -1 7 C-0.67 4.69 -0.34 2.38 0 0 Z " fill="#BB9071" transform="translate(54,60)"/>
<path d="M0 0 C2 3 2 3 2 5 C-4.27 5 -10.54 5 -17 5 C-17 4.34 -17 3.68 -17 3 C-12.38 3 -7.76 3 -3 3 C-2.67 2.34 -2.34 1.68 -2 1 C-1.34 1.33 -0.68 1.66 0 2 C0 1.34 0 0.68 0 0 Z " fill="#B78D70" transform="translate(47,62)"/>
<path d="M0 0 C6.52307692 -0.36923077 6.52307692 -0.36923077 8.9375 1.5 C9.288125 1.995 9.63875 2.49 10 3 C9.01 3 8.02 3 7 3 C7 3.66 7 4.32 7 5 C4.69 5.33 2.38 5.66 0 6 C0 4.02 0 2.04 0 0 Z " fill="#625951" transform="translate(59,55)"/>
<path d="M0 0 C0.99 0.495 0.99 0.495 2 1 C2 1.66 2 2.32 2 3 C2.66 3 3.32 3 4 3 C4.33 2.01 4.66 1.02 5 0 C7.28062828 3.42094242 7.21925007 4.68187222 7.125 8.6875 C7.10695313 9.68136719 7.08890625 10.67523438 7.0703125 11.69921875 C7.03550781 12.83810547 7.03550781 12.83810547 7 14 C4.96229271 11.39593854 3.28195311 8.83642657 1.8125 5.875 C1.29623047 4.85019531 1.29623047 4.85019531 0.76953125 3.8046875 C0 2 0 2 0 0 Z " fill="#76599D" transform="translate(60,34)"/>
<path d="M0 0 C3.79437614 0.53968151 5.11513088 1.97151819 7.4375 4.9375 C10.12981313 8.17632969 11.94770695 9.68574279 16 11 C18.3125 13.125 18.3125 13.125 20 15 C19.67 15.66 19.34 16.32 19 17 C17.56770833 15.73046875 16.13541667 14.4609375 14.703125 13.19140625 C13.06301417 11.87866193 13.06301417 11.87866193 11.0234375 11.58203125 C8.24618315 10.78316851 7.20582847 9.32683335 5.375 7.125 C4.78460938 6.42632812 4.19421875 5.72765625 3.5859375 5.0078125 C2 3 2 3 0 0 Z " fill="#351B5F" transform="translate(42,24)"/>
<path d="M0 0 C1.21236328 0.01353516 1.21236328 0.01353516 2.44921875 0.02734375 C3.37154297 0.04474609 3.37154297 0.04474609 4.3125 0.0625 C2.25482054 1.11937939 0.33611292 2.0550788 -1.875 2.75 C-4.11163806 4.05912057 -4.11163806 4.05912057 -4.4375 7.6875 C-4.52 8.80125 -4.6025 9.915 -4.6875 11.0625 C-5.6775 10.7325 -6.6675 10.4025 -7.6875 10.0625 C-7.6875 7.0925 -7.6875 4.1225 -7.6875 1.0625 C-4.80538698 0.10179566 -2.98899956 -0.04331883 0 0 Z " fill="#AC8973" transform="translate(37.6875,52.9375)"/>
<path d="M0 0 C0.99 0.495 0.99 0.495 2 1 C3.65155878 6.89259861 4.27098599 12.90281525 4 19 C0.83351995 15.83351995 0.07068743 12.60593007 -0.125 8.16015625 C-0.125 5.43721157 -0.08716399 2.72145344 0 0 Z " fill="#3A276F" transform="translate(20,35)"/>
<path d="M0 0 C3 0.125 3 0.125 6 1 C7.375 3.0625 7.375 3.0625 8 5 C7.01 4.67 6.02 4.34 5 4 C5 3.34 5 2.68 5 2 C2.69 2 0.38 2 -2 2 C-1.34 1.34 -0.68 0.68 0 0 Z M4 4 C5.48828125 5.14453125 5.48828125 5.14453125 7 7 C7.29296875 9.69921875 7.29296875 9.69921875 7.1875 12.6875 C7.16042969 13.68136719 7.13335937 14.67523438 7.10546875 15.69921875 C7.07066406 16.45847656 7.03585938 17.21773437 7 18 C6.67 18 6.34 18 6 18 C2.37129841 8.58997722 2.37129841 8.58997722 4 4 Z " fill="#6D53A3" transform="translate(68,21)"/>
<path d="M0 0 C0.66 0 1.32 0 2 0 C3.07310858 3.27185553 2.89263102 5.42947592 2.0625 8.75 C1.86785156 9.54921875 1.67320313 10.3484375 1.47265625 11.171875 C1.23869141 12.07679687 1.23869141 12.07679687 1 13 C-0.65 13 -2.3 13 -4 13 C-3.79503906 12.39671875 -3.59007813 11.7934375 -3.37890625 11.171875 C-2.97478516 9.97304687 -2.97478516 9.97304687 -2.5625 8.75 C-2.29566406 7.96109375 -2.02882813 7.1721875 -1.75390625 6.359375 C-1.08045292 4.25178012 -0.50849405 2.15246027 0 0 Z " fill="#968375" transform="translate(78,55)"/>
<path d="M0 0 C0.66 0 1.32 0 2 0 C2.66 2.31 3.32 4.62 4 7 C3 8 3 8 0.5 8.125 C-2 8 -2 8 -3 7 C-3.04063832 5.33382885 -3.042721 3.66611905 -3 2 C-2.01 2 -1.02 2 0 2 C0 1.34 0 0.68 0 0 Z " fill="#CBCCD1" transform="translate(51,83)"/>
<path d="M0 0 C2.74837487 1.54787656 5.38313041 3.24026884 8 5 C5.34501768 6.0169313 4.30844625 6.13022151 1.640625 5.00390625 C0.85171875 4.52824219 0.0628125 4.05257813 -0.75 3.5625 C-1.54921875 3.08941406 -2.3484375 2.61632812 -3.171875 2.12890625 C-3.77515625 1.75636719 -4.3784375 1.38382813 -5 1 C-5.33 1.99 -5.66 2.98 -6 4 C-6.66 2.68 -7.32 1.36 -8 0 C-4.50393429 -1.16535524 -3.48599984 -1.08453328 0 0 Z " fill="#8064B6" transform="translate(60,16)"/>
<path d="M0 0 C0.185625 0.598125 0.37125 1.19625 0.5625 1.8125 C3.20232359 5.82962285 7.96051316 6.67275414 12.375 8.0625 C15 9 15 9 16 11 C13.89337849 10.77160737 11.78964049 10.51650087 9.6875 10.25 C8.51574219 10.11078125 7.34398437 9.9715625 6.13671875 9.828125 C3 9 3 9 1.09375 7.09375 C-0.22598578 4.56739865 -0.2343186 2.8118232 0 0 Z " fill="#4A3283" transform="translate(29,23)"/>
<path d="M0 0 C0.33 1.32 0.66 2.64 1 4 C-2.96 4 -6.92 4 -11 4 C-10.67 3.01 -10.34 2.02 -10 1 C-6.78548731 -0.60725635 -3.56387464 -0.05748185 0 0 Z " fill="#503E33" transform="translate(44,47)"/>
<path d="M0 0 C0.66 0 1.32 0 2 0 C2.66 3.96 3.32 7.92 4 12 C3.01 12 2.02 12 1 12 C0.03929566 9.11788698 -0.10581883 7.30149956 -0.0625 4.3125 C-0.05347656 3.50425781 -0.04445313 2.69601563 -0.03515625 1.86328125 C-0.02355469 1.24839844 -0.01195313 0.63351563 0 0 Z " fill="#B5886D" transform="translate(22,55)"/>
<path d="M0 0 C0.66 0.66 1.32 1.32 2 2 C2.99 1.34 3.98 0.68 5 0 C5.33 0.66 5.66 1.32 6 2 C6.99 1.34 7.98 0.68 9 0 C8.34 2.31 7.68 4.62 7 7 C6.01 6.34 5.02 5.68 4 5 C3.67 5.66 3.34 6.32 3 7 C2.34 7 1.68 7 1 7 C0.67 4.69 0.34 2.38 0 0 Z " fill="#DBDBDD" transform="translate(56,95)"/>
<path d="M0 0 C0 0.66 0 1.32 0 2 C-2.10170656 2.53067341 -4.20647598 3.04922857 -6.3125 3.5625 C-7.48425781 3.85253906 -8.65601563 4.14257812 -9.86328125 4.44140625 C-13 5 -13 5 -16 4 C-15.34 4 -14.68 4 -14 4 C-14 3.34 -14 2.68 -14 2 C-12.22978678 1.663389 -10.45880326 1.33082707 -8.6875 1 C-7.70136719 0.814375 -6.71523438 0.62875 -5.69921875 0.4375 C-3 0 -3 0 0 0 Z " fill="#634F9C" transform="translate(58,8)"/>
<path d="M0 0 C2.475 0.99 2.475 0.99 5 2 C5 3.32 5 4.64 5 6 C4.34 6.66 3.68 7.32 3 8 C0.875 7.625 0.875 7.625 -1 7 C-0.67 4.69 -0.34 2.38 0 0 Z " fill="#C3BFD3" transform="translate(82,99)"/>
<path d="M0 0 C-1 1.5625 -1 1.5625 -3 3 C-5.76614782 2.96726452 -8.26030547 2.49404328 -11 2 C-11 1.34 -11 0.68 -11 0 C-3.375 -1.125 -3.375 -1.125 0 0 Z " fill="#CFA183" transform="translate(57,49)"/>
<path d="M0 0 C1.21816406 0.03480469 1.21816406 0.03480469 2.4609375 0.0703125 C3.68683594 0.09738281 3.68683594 0.09738281 4.9375 0.125 C5.87722656 0.15980469 5.87722656 0.15980469 6.8359375 0.1953125 C7.1659375 0.8553125 7.4959375 1.5153125 7.8359375 2.1953125 C6.7634375 2.0921875 5.6909375 1.9890625 4.5859375 1.8828125 C0.69383602 1.79458848 0.69383602 1.79458848 -1.6015625 4.6953125 C-2.1171875 5.5203125 -2.6328125 6.3453125 -3.1640625 7.1953125 C-3.7890625 4.8203125 -3.7890625 4.8203125 -4.1640625 2.1953125 C-2.1640625 0.1953125 -2.1640625 0.1953125 0 0 Z " fill="#CFA283" transform="translate(40.1640625,36.8046875)"/>
<path d="M0 0 C0.45375 1.11375 0.9075 2.2275 1.375 3.375 C2.72465986 6.96199008 2.72465986 6.96199008 5 9 C1 9 1 9 -0.75 7.625 C-2 6 -2 6 -2 4 C-2.99 3.67 -3.98 3.34 -5 3 C-2.25 0 -2.25 0 0 0 Z " fill="#331C6D" transform="translate(29,24)"/>
<path d="M0 0 C2.93879484 1.35236577 5.29232911 2.89942659 7.75 5 C8.67039062 5.7734375 8.67039062 5.7734375 9.609375 6.5625 C11 8 11 8 11 10 C7.17664834 9.45864047 5.68624405 7.91516382 3.25 5 C2.63640625 4.278125 2.0228125 3.55625 1.390625 2.8125 C0 1 0 1 0 0 Z " fill="#4C3487" transform="translate(45,24)"/>
<path d="M0 0 C2.8342324 0.08335978 4.55701545 0.61391255 6.703125 2.484375 C9.86870106 5.94579928 9.86870106 5.94579928 11 8 C10.6640625 10.23046875 10.6640625 10.23046875 10 12 C9.649375 11.113125 9.29875 10.22625 8.9375 9.3125 C6.49611071 5.13851186 4.00268077 3.64327975 0 1 C0 0.67 0 0.34 0 0 Z " fill="#845A3E" transform="translate(52,35)"/>
<path d="M0 0 C0.33 0 0.66 0 1 0 C1.06058594 0.69867188 1.12117188 1.39734375 1.18359375 2.1171875 C1.26738281 3.02726562 1.35117187 3.93734375 1.4375 4.875 C1.55931641 6.23238281 1.55931641 6.23238281 1.68359375 7.6171875 C1.86989285 10.01110861 1.86989285 10.01110861 3 12 C2.01 12 1.02 12 0 12 C-1.62112003 7.89951993 -2.33963162 5.26246425 -1 1 C-0.67 0.67 -0.34 0.34 0 0 Z " fill="#BB8B6A" transform="translate(33,36)"/>
<path d="M0 0 C0.33 0 0.66 0 1 0 C1.33 5.61 1.66 11.22 2 17 C1.01 17.33 0.02 17.66 -1 18 C-0.505 9.09 -0.505 9.09 0 0 Z " fill="#583E8F" transform="translate(72,32)"/>
<path d="M0 0 C4.8 2.46153846 4.8 2.46153846 5.8125 5.1875 C5.874375 5.785625 5.93625 6.38375 6 7 C5.67 7 5.34 7 5 7 C4.67 8.98 4.34 10.96 4 13 C3.67 13 3.34 13 3 13 C2.86722656 12.31292969 2.73445313 11.62585937 2.59765625 10.91796875 C2.42105469 10.01691406 2.24445313 9.11585937 2.0625 8.1875 C1.88847656 7.29417969 1.71445313 6.40085937 1.53515625 5.48046875 C1.02258847 2.88602829 1.02258847 2.88602829 0 0 Z " fill="#523E90" transform="translate(73,25)"/>
<path d="M0 0 C1.67542976 0.28604898 3.34385343 0.61781233 5 1 C5 1.99 5 2.98 5 4 C3.35 4.33 1.7 4.66 0 5 C-0.5625 3.0625 -0.5625 3.0625 -1 1 C-0.67 0.67 -0.34 0.34 0 0 Z " fill="#A4A4AB" transform="translate(33,96)"/>
<path d="M0 0 C1.65 0 3.3 0 5 0 C5.33 0.99 5.66 1.98 6 3 C3.69 3.33 1.38 3.66 -1 4 C-0.67 2.68 -0.34 1.36 0 0 Z " fill="#554236" transform="translate(58,47)"/>
<path d="M0 0 C0.66 0 1.32 0 2 0 C4.74375671 2.95481492 5 3.77471908 5 8 C4.01 7.67 3.02 7.34 2 7 C2 5.68 2 4.36 2 3 C1.01 3 0.02 3 -1 3 C-0.67 2.01 -0.34 1.02 0 0 Z " fill="#6B50A3" transform="translate(24,30)"/>
<path d="M0 0 C4.79280002 0.80904103 6.13520113 3.25984591 9 7 C6 7 6 7 4.39453125 5.46875 C3.87246094 4.8190625 3.35039063 4.169375 2.8125 3.5 C2.28269531 2.8503125 1.75289062 2.200625 1.20703125 1.53125 C0.80871094 1.0259375 0.41039062 0.520625 0 0 Z " fill="#371D70" transform="translate(42,24)"/>
<path d="M0 0 C1.96602468 2.94903702 2.73897585 4.51967799 3 8 C1.5625 9.8125 1.5625 9.8125 0 11 C0 10.01 0 9.02 0 8 C-0.66 7.67 -1.32 7.34 -2 7 C-1.34 7 -0.68 7 0 7 C0 4.69 0 2.38 0 0 Z " fill="#74513E" transform="translate(74,56)"/>
<path d="M0 0 C0.66 0.33 1.32 0.66 2 1 C2 2.32 2 3.64 2 5 C-1.3 5 -4.6 5 -8 5 C-8 4.67 -8 4.34 -8 4 C-6.865625 3.71125 -5.73125 3.4225 -4.5625 3.125 C-3.386875 2.75375 -2.21125 2.3825 -1 2 C-0.67 1.34 -0.34 0.68 0 0 Z " fill="#DFC4B4" transform="translate(44,58)"/>
<path d="M0 0 C0 0.99 0 1.98 0 3 C0.99 3.33 1.98 3.66 3 4 C0.03 4 -2.94 4 -6 4 C-5.67 3.01 -5.34 2.02 -5 1 C-3 0 -3 0 0 0 Z " fill="#58524C" transform="translate(39,55)"/>
<path d="M0 0 C0.99 0.33 1.98 0.66 3 1 C2.67 4.3 2.34 7.6 2 11 C0 9 0 9 -0.1953125 6.8359375 C-0.17210938 6.02382813 -0.14890625 5.21171875 -0.125 4.375 C-0.10695313 3.55773438 -0.08890625 2.74046875 -0.0703125 1.8984375 C-0.04710938 1.27195313 -0.02390625 0.64546875 0 0 Z " fill="#543C91" transform="translate(26,37)"/>
<path d="M0 0 C1.45922693 0.11409593 2.91740598 0.24165544 4.375 0.375 C5.59316406 0.47941406 5.59316406 0.47941406 6.8359375 0.5859375 C9 1 9 1 11 3 C7.04 3 3.08 3 -1 3 C-0.67 2.01 -0.34 1.02 0 0 Z " fill="#290F52" transform="translate(34,32)"/>
<path d="M0 0 C2 3 2 3 2 6 C3.2065625 6.433125 3.2065625 6.433125 4.4375 6.875 C7 8 7 8 8 10 C5.69 9.34 3.38 8.68 1 8 C0.67 5.36 0.34 2.72 0 0 Z " fill="#6F55A8" transform="translate(32,21)"/>
<path d="M0 0 C2.02045442 0.60183749 4.02111039 1.27306096 6 2 C6.33 2.66 6.66 3.32 7 4 C6.01 4 5.02 4 4 4 C3.67 4.66 3.34 5.32 3 6 C1.5 4.6875 1.5 4.6875 0 3 C0 2.01 0 1.02 0 0 Z " fill="#4C3483" transform="translate(55,17)"/>
<path d="M0 0 C0.33 0 0.66 0 1 0 C1 2.64 1 5.28 1 8 C-0.65 8 -2.3 8 -4 8 C-2.68 5.36 -1.36 2.72 0 0 Z " fill="#BC8F73" transform="translate(78,60)"/>
<path d="M0 0 C1.65 0 3.3 0 5 0 C5 1.32 5 2.64 5 4 C3.35 4 1.7 4 0 4 C0 2.68 0 1.36 0 0 Z " fill="#E2B69A" transform="translate(49,60)"/>
<path d="M0 0 C2.64 0 5.28 0 8 0 C7.01 0.66 6.02 1.32 5 2 C3.80767387 4.05003955 3.80767387 4.05003955 3 6 C2.01 4.02 1.02 2.04 0 0 Z " fill="#3B2375" transform="translate(61,26)"/>
<path d="M0 0 C2.31 0 4.62 0 7 0 C7.33 0.99 7.66 1.98 8 3 C5.36 2.67 2.72 2.34 0 2 C0 1.34 0 0.68 0 0 Z " fill="#230B5E" transform="translate(62,23)"/>
<path d="M0 0 C2.16147703 1.08073852 3.41039672 2.19363264 5 4 C5 4.66 5 5.32 5 6 C3.35 5.67 1.7 5.34 0 5 C0 3.35 0 1.7 0 0 Z " fill="#C0C1C6" transform="translate(48,85)"/>
<path d="M0 0 C2.29633824 3.44450737 2.54016485 5.93812283 3 10 C2.34 10 1.68 10 1 10 C0.63883954 8.5225254 0.28624952 7.04295325 -0.0625 5.5625 C-0.25972656 4.73878906 -0.45695312 3.91507813 -0.66015625 3.06640625 C-0.82837891 2.04353516 -0.82837891 2.04353516 -1 1 C-0.67 0.67 -0.34 0.34 0 0 Z " fill="#4A2E67" transform="translate(24,53)"/>
<path d="M0 0 C2.64 0 5.28 0 8 0 C8 0.33 8 0.66 8 1 C6.35 1 4.7 1 3 1 C2.67 2.32 2.34 3.64 2 5 C1.34 5 0.68 5 0 5 C0 3.35 0 1.7 0 0 Z " fill="#8A6E5C" transform="translate(56,54)"/>
<path d="M0 0 C0.66 0 1.32 0 2 0 C2 2.64 2 5.28 2 8 C1.01 8.495 1.01 8.495 0 9 C-1.125 3.375 -1.125 3.375 0 0 Z " fill="#3C2677" transform="translate(75,42)"/>
<path d="M0 0 C-0.99 0.66 -1.98 1.32 -3 2 C-3.66 1.67 -4.32 1.34 -5 1 C-5.33 1.99 -5.66 2.98 -6 4 C-6.66 2.68 -7.32 1.36 -8 0 C-4.71023192 -1.09658936 -3.28696233 -0.79953138 0 0 Z " fill="#785DAE" transform="translate(60,16)"/>
<path d="M0 0 C0.33 1.32 0.66 2.64 1 4 C2.65 4 4.3 4 6 4 C5.67 4.99 5.34 5.98 5 7 C3.68 7 2.36 7 1 7 C0.67 4.69 0.34 2.38 0 0 Z " fill="#D1A180" transform="translate(48,60)"/>
<path d="M0 0 C1.32 0.66 2.64 1.32 4 2 C4 2.66 4 3.32 4 4 C4.66 4.33 5.32 4.66 6 5 C4.68 5.33 3.36 5.66 2 6 C2 5.34 2 4.68 2 4 C0.68 3.34 -0.64 2.68 -2 2 C-1.34 2 -0.68 2 0 2 C0 1.34 0 0.68 0 0 Z " fill="#C0AA9C" transform="translate(66,58)"/>
<path d="M0 0 C2.64 0.33 5.28 0.66 8 1 C7.67 1.66 7.34 2.32 7 3 C5.02 3 3.04 3 1 3 C0.67 2.01 0.34 1.02 0 0 Z " fill="#C29473" transform="translate(46,51)"/>
<path d="M0 0 C0.66 0.33 1.32 0.66 2 1 C2 1.66 2 2.32 2 3 C3.65 3 5.3 3 7 3 C7 3.33 7 3.66 7 4 C4.36 4.33 1.72 4.66 -1 5 C-0.67 3.35 -0.34 1.7 0 0 Z " fill="#CBB5A7" transform="translate(57,58)"/>
<path d="M0 0 C1.65 0.33 3.3 0.66 5 1 C4.01 1.495 4.01 1.495 3 2 C3 2.66 3 3.32 3 4 C1.35 4 -0.3 4 -2 4 C-1.34 3.67 -0.68 3.34 0 3 C0 2.01 0 1.02 0 0 Z " fill="#2E2B28" transform="translate(62,55)"/>
<path d="M0 0 C0.33 0.99 0.66 1.98 1 3 C1.66 3 2.32 3 3 3 C3 5.31 3 7.62 3 10 C-0.00617269 6.99382731 0.40414684 4.17618402 0 0 Z " fill="#311C69" transform="translate(21,44)"/>
<path d="M0 0 C1.32 0.33 2.64 0.66 4 1 C1.03 2.65 -1.94 4.3 -5 6 C-3 2 -3 2 0 0 Z " fill="#6750A0" transform="translate(37,13)"/>
<path d="M0 0 C0.99 0.33 1.98 0.66 3 1 C2.34 2.65 1.68 4.3 1 6 C0.34 6 -0.32 6 -1 6 C-1.042721 4.33388095 -1.04063832 2.66617115 -1 1 C-0.67 0.67 -0.34 0.34 0 0 Z " fill="#493A6F" transform="translate(30,15)"/>
<path d="M0 0 C3.67420866 0.30618405 4.78135513 0.75771784 7.3125 3.5625 C8.1478125 4.7690625 8.1478125 4.7690625 9 6 C8.01 6 7.02 6 6 6 C6 5.34 6 4.68 6 4 C5.38125 3.71125 4.7625 3.4225 4.125 3.125 C2 2 2 2 0 0 Z " fill="#5F4A94" transform="translate(59,9)"/>
</svg>
